<svg width="26" height="26" viewBox="0 0 26 26" fill="none" xmlns="http://www.w3.org/2000/svg">
<path d="M25.7483 23.1538C24.1031 20.2219 21.534 17.9374 18.4547 16.6681C19.986 15.502 21.1171 13.8762 21.6879 12.0211C22.2586 10.166 22.24 8.17554 21.6347 6.33176C21.0294 4.48797 19.8681 2.8843 18.3152 1.7479C16.7624 0.611509 14.8968 0 12.9826 0C11.0685 0 9.20288 0.611509 7.65004 1.7479C6.09721 2.8843 4.93589 4.48797 4.33059 6.33176C3.72528 8.17554 3.70668 10.166 4.27741 12.0211C4.84815 13.8762 5.97929 15.502 7.5106 16.6681C4.43128 17.9374 1.86221 20.2219 0.216945 23.1538C0.114998 23.3202 0.0470515 23.5058 0.0171436 23.6994C-0.0127643 23.893 -0.00402261 24.0908 0.0428491 24.2809C0.0897207 24.4711 0.173765 24.6497 0.289987 24.8062C0.406208 24.9627 0.552234 25.0939 0.719382 25.1919C0.88653 25.29 1.07139 25.3529 1.26297 25.377C1.45455 25.401 1.64894 25.3857 1.83458 25.332C2.02022 25.2783 2.19333 25.1872 2.34361 25.0641C2.49389 24.9411 2.61827 24.7887 2.70936 24.6159C4.88378 20.7998 8.72381 18.5237 12.9826 18.5237C17.2415 18.5237 21.0815 20.801 23.2559 24.6159C23.4533 24.9382 23.7665 25.1699 24.1291 25.2621C24.4917 25.3542 24.8755 25.2996 25.1991 25.1097C25.5228 24.9198 25.7611 24.6096 25.8636 24.2446C25.9661 23.8796 25.9247 23.4884 25.7483 23.1538ZM6.7426 9.26369C6.7426 8.01059 7.10857 6.78562 7.79423 5.7437C8.4799 4.70178 9.45446 3.88971 10.5947 3.41016C11.7349 2.93062 12.9896 2.80515 14.2 3.04962C15.4105 3.29409 16.5223 3.89752 17.395 4.7836C18.2677 5.66968 18.862 6.79861 19.1028 8.02764C19.3436 9.25667 19.22 10.5306 18.7477 11.6883C18.2754 12.846 17.4756 13.8355 16.4494 14.5317C15.4233 15.2279 14.2168 15.5995 12.9826 15.5995C11.3283 15.5976 9.74219 14.9294 8.57237 13.7417C7.40254 12.5539 6.7445 10.9435 6.7426 9.26369Z" fill="white"/>
</svg>
