<svg width="57" height="57" viewBox="0 0 57 57" fill="none" xmlns="http://www.w3.org/2000/svg">
<g clip-path="url(#clip0_1_5554)">
<path d="M52.25 5.34396H44.5312V1.78146C44.5316 1.30904 44.3442 0.855851 44.0104 0.52158C43.6765 0.187308 43.2236 -0.000661195 42.7512 -0.00097614C42.2788 -0.00129108 41.8256 0.186074 41.4913 0.5199C41.157 0.853727 40.9691 1.30667 40.9688 1.77909V5.34396H30.2812V1.78146C30.2814 1.54754 30.2355 1.31589 30.1461 1.09972C30.0567 0.883545 29.9257 0.687094 29.7604 0.52158C29.5951 0.356065 29.3988 0.224728 29.1828 0.135068C28.9667 0.0454076 28.7351 -0.000820221 28.5012 -0.000976166C28.0288 -0.00129111 27.5756 0.186074 27.2413 0.5199C26.907 0.853727 26.7191 1.30667 26.7188 1.77909V5.34396H16.0312V1.78146C16.0314 1.54754 15.9855 1.31589 15.8961 1.09972C15.8067 0.883545 15.6757 0.687094 15.5104 0.52158C15.3451 0.356065 15.1488 0.224728 14.9328 0.135068C14.7167 0.0454076 14.4851 -0.000820221 14.2512 -0.000976166C13.7788 -0.00129111 13.3256 0.186074 12.9913 0.5199C12.657 0.853727 12.4691 1.30667 12.4688 1.77909V5.34396H4.75C3.49063 5.34396 2.28281 5.84408 1.39208 6.73436C0.501353 7.62465 0.000629683 8.83222 0 10.0916V52.2478C0 53.5076 0.500445 54.7158 1.39124 55.6066C2.28204 56.4974 3.49022 56.9978 4.75 56.9978H52.25C53.5098 56.9978 54.718 56.4974 55.6088 55.6066C56.4996 54.7158 57 53.5076 57 52.2478V10.0916C56.9994 8.83222 56.4986 7.62465 55.6079 6.73436C54.7172 5.84408 53.5094 5.34396 52.25 5.34396ZM53.4375 52.2502C53.4375 52.5647 53.3127 52.8664 53.0905 53.0891C52.8683 53.3117 52.5669 53.4371 52.2524 53.4377H4.75C4.43506 53.4377 4.13301 53.3126 3.91031 53.0899C3.68761 52.8672 3.5625 52.5652 3.5625 52.2502V10.094C3.56313 9.77943 3.68852 9.47799 3.91115 9.25581C4.13378 9.03362 4.43547 8.90884 4.75 8.90884H12.4688V12.4713C12.4684 12.9438 12.6558 13.3969 12.9896 13.7312C13.3235 14.0655 13.7764 14.2535 14.2488 14.2538C14.7212 14.2541 15.1744 14.0667 15.5087 13.7329C15.843 13.3991 16.0309 12.9461 16.0312 12.4737V8.90884H26.7188V12.4713C26.7184 12.9438 26.9058 13.3969 27.2396 13.7312C27.5735 14.0655 28.0264 14.2535 28.4988 14.2538C28.9712 14.2541 29.4244 14.0667 29.7587 13.7329C30.093 13.3991 30.2809 12.9461 30.2812 12.4737V8.90884H40.9688V12.4713C40.9684 12.9438 41.1558 13.3969 41.4896 13.7312C41.8235 14.0655 42.2764 14.2535 42.7488 14.2538C43.2212 14.2541 43.6744 14.0667 44.0087 13.7329C44.343 13.3991 44.5309 12.9461 44.5312 12.4737V8.90884H52.25C52.5641 8.90946 52.8652 9.03453 53.0873 9.25664C53.3094 9.47876 53.4345 9.77984 53.4351 10.094L53.4375 52.2502Z" fill="#B41129"/>
<path d="M12.4688 21.375H19.5938V26.7188H12.4688V21.375ZM12.4688 30.2812H19.5938V35.625H12.4688V30.2812ZM12.4688 39.1875H19.5938V44.5312H12.4688V39.1875ZM24.9375 39.1875H32.0625V44.5312H24.9375V39.1875ZM24.9375 30.2812H32.0625V35.625H24.9375V30.2812ZM24.9375 21.375H32.0625V26.7188H24.9375V21.375ZM37.4062 39.1875H44.5312V44.5312H37.4062V39.1875ZM37.4062 30.2812H44.5312V35.625H37.4062V30.2812ZM37.4062 21.375H44.5312V26.7188H37.4062V21.375Z" fill="#B41129"/>
</g>
<defs>
<clipPath id="clip0_1_5554">
<rect width="57" height="57" fill="white"/>
</clipPath>
</defs>
</svg>
