<svg width="57" height="57" viewBox="0 0 57 57" fill="none" xmlns="http://www.w3.org/2000/svg">
<path d="M36.6706 39.1875L26.7188 29.2303V12.4688H30.2777V27.7554L39.1875 36.6706L36.6706 39.1875Z" fill="#B41129"/>
<path d="M28.5 3.5625C31.823 3.56147 35.1123 4.22859 38.1723 5.5242C41.2323 6.81981 44.0006 8.71745 46.3125 11.1043V3.5625H49.875V17.8125H35.625V14.25H44.3923C41.0551 10.544 36.5255 8.12368 31.5898 7.40919C26.6542 6.6947 21.6241 7.73118 17.373 10.3387C13.1219 12.9462 9.91804 16.96 8.31778 21.6834C6.71751 26.4068 6.82185 31.5415 8.61266 36.196C10.4035 40.8504 13.7677 44.7309 18.1212 47.1635C22.4748 49.5962 27.5428 50.4275 32.4453 49.5131C37.3479 48.5987 41.7755 45.9963 44.9594 42.1579C48.1433 38.3194 49.8825 33.4871 49.875 28.5H53.4375C53.4375 33.4322 51.975 38.2536 49.2348 42.3545C46.4946 46.4555 42.5999 49.6518 38.0432 51.5392C33.4864 53.4267 28.4723 53.9206 23.6349 52.9583C18.7975 51.9961 14.3541 49.621 10.8665 46.1335C7.37896 42.6459 5.0039 38.2025 4.04168 33.3651C3.07946 28.5277 3.5733 23.5136 5.46077 18.9568C7.34823 14.4001 10.5445 10.5054 14.6455 7.76523C18.7464 5.02506 23.5678 3.5625 28.5 3.5625Z" fill="#B41129"/>
</svg>
