<svg width="40" height="40" viewBox="0 0 40 40" fill="none" xmlns="http://www.w3.org/2000/svg">
<path fill-rule="evenodd" clip-rule="evenodd" d="M10 18C11.0609 18 12.0783 17.5786 12.8284 16.8284C13.5786 16.0783 14 15.0609 14 14C14 12.9391 13.5786 11.9217 12.8284 11.1716C12.0783 10.4214 11.0609 10 10 10C8.93913 10 7.92172 10.4214 7.17157 11.1716C6.42143 11.9217 6 12.9391 6 14C6 15.0609 6.42143 16.0783 7.17157 16.8284C7.92172 17.5786 8.93913 18 10 18ZM10 20C10.7879 20 11.5681 19.8448 12.2961 19.5433C13.0241 19.2417 13.6855 18.7998 14.2426 18.2426C14.7998 17.6855 15.2417 17.0241 15.5433 16.2961C15.8448 15.5681 16 14.7879 16 14C16 13.2121 15.8448 12.4319 15.5433 11.7039C15.2417 10.9759 14.7998 10.3145 14.2426 9.75736C13.6855 9.20021 13.0241 8.75825 12.2961 8.45672C11.5681 8.15519 10.7879 8 10 8C8.4087 8 6.88258 8.63214 5.75736 9.75736C4.63214 10.8826 4 12.4087 4 14C4 15.5913 4.63214 17.1174 5.75736 18.2426C6.88258 19.3679 8.4087 20 10 20Z" fill="white"/>
<path fill-rule="evenodd" clip-rule="evenodd" d="M7.708 17.792C7.80113 17.8849 7.87501 17.9952 7.92543 18.1167C7.97584 18.2382 8.00179 18.3684 8.00179 18.5C8.00179 18.6315 7.97584 18.7618 7.92543 18.8832C7.87501 19.0047 7.80113 19.1151 7.708 19.208L7.032 19.882C5.73107 21.1833 5.00017 22.9479 5 24.788V28.5C5 28.7652 4.89464 29.0196 4.70711 29.2071C4.51957 29.3946 4.26522 29.5 4 29.5C3.73478 29.5 3.48043 29.3946 3.29289 29.2071C3.10536 29.0196 3 28.7652 3 28.5V24.788C3.00028 22.4175 3.94197 20.1443 5.618 18.468L6.292 17.792C6.38489 17.6989 6.49524 17.625 6.61673 17.5746C6.73822 17.5241 6.86847 17.4982 7 17.4982C7.13153 17.4982 7.26178 17.5241 7.38327 17.5746C7.50476 17.625 7.61511 17.6989 7.708 17.792ZM31.292 17.192C31.1989 17.2849 31.125 17.3952 31.0746 17.5167C31.0242 17.6382 30.9982 17.7684 30.9982 17.9C30.9982 18.0315 31.0242 18.1618 31.0746 18.2832C31.125 18.4047 31.1989 18.5151 31.292 18.608L31.968 19.282C32.6122 19.9263 33.1233 20.6911 33.4719 21.5329C33.8206 22.3747 34 23.2769 34 24.188V28.5C34 28.7652 34.1054 29.0196 34.2929 29.2071C34.4804 29.3946 34.7348 29.5 35 29.5C35.2652 29.5 35.5196 29.3946 35.7071 29.2071C35.8946 29.0196 36 28.7652 36 28.5V24.188C35.9997 21.8175 35.058 19.5443 33.382 17.868L32.708 17.192C32.6151 17.0989 32.5048 17.025 32.3833 16.9746C32.2618 16.9241 32.1315 16.8982 32 16.8982C31.8685 16.8982 31.7382 16.9241 31.6167 16.9746C31.4952 17.025 31.3849 17.0989 31.292 17.192Z" fill="white"/>
<path fill-rule="evenodd" clip-rule="evenodd" d="M28 18C26.9391 18 25.9217 17.5786 25.1716 16.8284C24.4214 16.0783 24 15.0609 24 14C24 12.9391 24.4214 11.9217 25.1716 11.1716C25.9217 10.4214 26.9391 10 28 10C29.0609 10 30.0783 10.4214 30.8284 11.1716C31.5786 11.9217 32 12.9391 32 14C32 15.0609 31.5786 16.0783 30.8284 16.8284C30.0783 17.5786 29.0609 18 28 18ZM28 20C27.2121 20 26.4319 19.8448 25.7039 19.5433C24.9759 19.2417 24.3145 18.7998 23.7574 18.2426C23.2002 17.6855 22.7583 17.0241 22.4567 16.2961C22.1552 15.5681 22 14.7879 22 14C22 13.2121 22.1552 12.4319 22.4567 11.7039C22.7583 10.9759 23.2002 10.3145 23.7574 9.75736C24.3145 9.20021 24.9759 8.75825 25.7039 8.45672C26.4319 8.15519 27.2121 8 28 8C29.5913 8 31.1174 8.63214 32.2426 9.75736C33.3679 10.8826 34 12.4087 34 14C34 15.5913 33.3679 17.1174 32.2426 18.2426C31.1174 19.3679 29.5913 20 28 20ZM19 26.5C17.6739 26.5 16.4021 27.0268 15.4645 27.9645C14.5268 28.9021 14 30.1739 14 31.5V34.1C14 34.3652 13.8946 34.6196 13.7071 34.8071C13.5196 34.9946 13.2652 35.1 13 35.1C12.7348 35.1 12.4804 34.9946 12.2929 34.8071C12.1054 34.6196 12 34.3652 12 34.1V31.5C12 29.6435 12.7375 27.863 14.0503 26.5503C15.363 25.2375 17.1435 24.5 19 24.5C20.8565 24.5 22.637 25.2375 23.9497 26.5503C25.2625 27.863 26 29.6435 26 31.5V34.1C26 34.3652 25.8946 34.6196 25.7071 34.8071C25.5196 34.9946 25.2652 35.1 25 35.1C24.7348 35.1 24.4804 34.9946 24.2929 34.8071C24.1054 34.6196 24 34.3652 24 34.1V31.5C24 30.8434 23.8707 30.1932 23.6194 29.5866C23.3681 28.98 22.9998 28.4288 22.5355 27.9645C22.0712 27.5002 21.52 27.1319 20.9134 26.8806C20.3068 26.6293 19.6566 26.5 19 26.5Z" fill="white"/>
<path fill-rule="evenodd" clip-rule="evenodd" d="M19 23.5C20.0609 23.5 21.0783 23.0786 21.8284 22.3284C22.5786 21.5783 23 20.5609 23 19.5C23 18.4391 22.5786 17.4217 21.8284 16.6716C21.0783 15.9214 20.0609 15.5 19 15.5C17.9391 15.5 16.9217 15.9214 16.1716 16.6716C15.4214 17.4217 15 18.4391 15 19.5C15 20.5609 15.4214 21.5783 16.1716 22.3284C16.9217 23.0786 17.9391 23.5 19 23.5ZM19 25.5C20.5913 25.5 22.1174 24.8679 23.2426 23.7426C24.3679 22.6174 25 21.0913 25 19.5C25 17.9087 24.3679 16.3826 23.2426 15.2574C22.1174 14.1321 20.5913 13.5 19 13.5C17.4087 13.5 15.8826 14.1321 14.7574 15.2574C13.6321 16.3826 13 17.9087 13 19.5C13 21.0913 13.6321 22.6174 14.7574 23.7426C15.8826 24.8679 17.4087 25.5 19 25.5Z" fill="white"/>
</svg>
