<svg width="84" height="84" viewBox="0 0 84 84" fill="none" xmlns="http://www.w3.org/2000/svg">
<path d="M42 7C35.0777 7 28.3108 9.05271 22.5551 12.8986C16.7993 16.7444 12.3133 22.2107 9.66423 28.6061C7.01516 35.0015 6.32205 42.0388 7.67253 48.8282C9.02301 55.6175 12.3564 61.8539 17.2513 66.7487C22.1461 71.6436 28.3825 74.977 35.1719 76.3275C41.9612 77.678 48.9985 76.9849 55.3939 74.3358C61.7894 71.6867 67.2556 67.2007 71.1014 61.445C74.9473 55.6892 77 48.9223 77 42C77 37.4037 76.0947 32.8525 74.3358 28.6061C72.5769 24.3597 69.9988 20.5013 66.7487 17.2513C63.4987 14.0012 59.6403 11.4231 55.3939 9.66422C51.1475 7.9053 46.5963 7 42 7ZM35 57.75V26.25L56 42L35 57.75Z" fill="white" fill-opacity="0.8"/>
</svg>
