<svg width="51" height="45" viewBox="0 0 51 45" fill="none" xmlns="http://www.w3.org/2000/svg">
<path d="M43.6616 29.898V12C43.6616 7.52075 43.6616 5.2835 42.2699 3.89175C40.8805 2.5 38.6409 2.5 34.1616 2.5H25.5M43.6616 29.898L47.8036 34.173L48.0126 34.3915C48.7744 35.2284 49.2124 36.3098 49.2476 37.441L49.25 37.7426C49.25 38.0989 49.25 38.2746 49.2405 38.4242C49.1676 39.5783 48.6763 40.6661 47.8587 41.4837C47.0411 42.3013 45.9533 42.7926 44.7992 42.8655C44.5722 42.8752 44.3449 42.8783 44.1176 42.875H6.88237C6.52612 42.875 6.35038 42.875 6.20075 42.8655C5.04674 42.7926 3.95894 42.3013 3.1413 41.4837C2.32367 40.6661 1.83236 39.5783 1.7595 38.4242C1.75 38.2746 1.75 38.0965 1.75 37.745L1.75237 37.4434C1.78762 36.3122 2.22557 35.2308 2.98737 34.3939L3.19637 34.1754L7.33838 29.9004M43.6616 29.898L37.4605 29.9004M7.33838 29.9004V12C7.33838 7.52075 7.33838 5.2835 8.73013 3.89175C10.1219 2.5 12.3591 2.5 16.8384 2.5M7.33838 29.9004L27.875 29.898M19.5625 36.9375H31.4375" stroke="#B41129" stroke-width="3.5" stroke-linecap="round"/>
<path d="M27.2812 9.03125C27.2812 9.50367 27.0936 9.95674 26.7595 10.2908C26.4255 10.6248 25.9724 10.8125 25.5 10.8125C25.0276 10.8125 24.5745 10.6248 24.2405 10.2908C23.9064 9.95674 23.7188 9.50367 23.7188 9.03125C23.7188 8.55883 23.9064 8.10576 24.2405 7.77172C24.5745 7.43767 25.0276 7.25 25.5 7.25C25.9724 7.25 26.4255 7.43767 26.7595 7.77172C27.0936 8.10576 27.2812 8.55883 27.2812 9.03125Z" fill="#B41129"/>
</svg>
