<svg width="57" height="58" viewBox="0 0 57 58" fill="none" xmlns="http://www.w3.org/2000/svg">
<path d="M54.2121 16.5421C57.2513 22.8986 57.8283 30.1556 55.8316 36.9125C53.8349 43.6694 49.4061 49.4472 43.4 53.1307C37.3938 56.8143 30.2361 58.1425 23.3083 56.859C16.3805 55.5755 10.1736 51.7713 5.88567 46.1806C1.59773 40.5899 -0.467333 33.6091 0.089048 26.5853C0.645429 19.5616 3.78381 12.9929 8.89848 8.14707C14.0131 3.3012 20.7415 0.521668 27.785 0.344915C34.8285 0.168162 41.6879 2.60672 47.0392 7.18995L53.2456 0.98074C53.6566 0.56977 54.214 0.338889 54.7952 0.338889C55.3764 0.338889 55.9338 0.56977 56.3448 0.98074C56.7557 1.39171 56.9866 1.94911 56.9866 2.53031C56.9866 3.11151 56.7557 3.6689 56.3448 4.07987L30.0624 30.3623C29.6514 30.7732 29.094 31.0041 28.5128 31.0041C27.9316 31.0041 27.3742 30.7732 26.9633 30.3623C26.5523 29.9513 26.3214 29.3939 26.3214 28.8127C26.3214 28.2315 26.5523 27.6741 26.9633 27.2631L34.5523 19.6741C32.4956 18.3138 30.04 17.6876 27.583 17.8966C25.126 18.1056 22.8115 19.1378 21.0142 20.8259C19.2168 22.5141 18.0418 24.7594 17.6793 27.1985C17.3169 29.6375 17.7882 32.1275 19.017 34.2654C20.2458 36.4032 22.1601 38.0638 24.4501 38.9783C26.7401 39.8927 29.2718 40.0076 31.6351 39.3042C33.9985 38.6008 36.0554 37.1203 37.4727 35.1025C38.89 33.0847 39.5848 30.6476 39.4446 28.1857C39.4285 27.8981 39.4691 27.6101 39.5642 27.3382C39.6593 27.0663 39.8071 26.8158 39.999 26.601C40.191 26.3861 40.4233 26.2112 40.6829 26.0862C40.9424 25.9612 41.224 25.8885 41.5116 25.8723C42.0925 25.8397 42.6626 26.0391 43.0964 26.4267C43.3113 26.6187 43.4862 26.851 43.6112 27.1106C43.7362 27.3701 43.8089 27.6517 43.825 27.9393C44.0247 31.4239 43.0295 34.8723 41.0038 37.7145C38.9781 40.5568 36.0432 42.6228 32.6842 43.5711C29.3253 44.5194 25.7433 44.2932 22.5303 42.9299C19.3173 41.5666 16.6656 39.1478 15.0136 36.0733C13.3615 32.9987 12.808 29.4525 13.4444 26.0208C14.0809 22.589 15.8692 19.4772 18.5138 17.1995C21.1585 14.9218 24.5011 13.6147 27.9893 13.4942C31.4775 13.3737 34.9024 14.4469 37.698 16.5366L43.9263 10.3082C39.362 6.51865 33.5584 4.54902 27.6303 4.77766C21.7022 5.0063 16.0676 7.41708 11.8087 11.547C7.54976 15.6769 4.96684 21.2347 4.556 27.153C4.14516 33.0712 5.93538 38.9326 9.58282 43.6114C13.2303 48.2901 18.4777 51.4563 24.3174 52.5019C30.157 53.5474 36.1771 52.3985 41.2213 49.276C46.2655 46.1534 49.9781 41.2772 51.6462 35.5841C53.3143 29.8909 52.8202 23.7822 50.2588 18.4311C50.0082 17.9069 49.9763 17.3046 50.1698 16.7568C50.3634 16.209 50.7666 15.7605 51.2909 15.51C51.8151 15.2595 52.4174 15.2275 52.9652 15.421C53.5131 15.6146 53.9616 16.0179 54.2121 16.5421Z" fill="#B41129"/>
</svg>
