<svg width="40" height="32" viewBox="0 0 40 32" fill="none" xmlns="http://www.w3.org/2000/svg">
<path d="M14.125 14.125C16.1961 14.125 17.875 12.4461 17.875 10.375C17.875 8.30393 16.1961 6.625 14.125 6.625C12.0539 6.625 10.375 8.30393 10.375 10.375C10.375 12.4461 12.0539 14.125 14.125 14.125Z" stroke="white" stroke-width="1.5"/>
<path d="M21.625 21.625C21.625 23.6969 21.625 25.375 14.125 25.375C6.625 25.375 6.625 23.6969 6.625 21.625C6.625 19.5531 9.98125 17.875 14.125 17.875C18.2688 17.875 21.625 19.5531 21.625 21.625Z" stroke="white" stroke-width="1.5"/>
<path d="M38.5 16C38.5 23.0706 38.5 26.6069 36.3025 28.8025C34.1069 31 30.5706 31 23.5 31H16C8.92938 31 5.39312 31 3.1975 28.8025C1 26.6069 1 23.0706 1 16C1 8.92938 1 5.39312 3.1975 3.1975C5.39312 1 8.92938 1 16 1H23.5C30.5706 1 34.1069 1 36.3025 3.1975C37.1837 4.07875 37.7106 5.17375 38.0275 6.625M32.875 16H25.375M32.875 10.375H23.5M32.875 21.625H27.25" stroke="white" stroke-width="1.5" stroke-linecap="round"/>
</svg>
